<svg width="91" height="91" viewBox="0 0 91 91" fill="none" xmlns="http://www.w3.org/2000/svg">
<circle cx="45.5" cy="45.5" r="45" fill="#EDE7E7" stroke="black"/>
<path d="M27.9204 58.1159V40.5363C27.9204 38.5946 29.4945 37.0204 31.4363 37.0204H32.3153C33.4219 37.0204 34.464 36.4994 35.128 35.6141L39.0307 30.4105C39.2299 30.1449 39.5425 29.9886 39.8745 29.9886H51.1254C51.4575 29.9886 51.7701 30.1449 51.9692 30.4105L55.8719 35.6141C56.5359 36.4994 57.578 37.0204 58.6846 37.0204H59.5636C61.5054 37.0204 63.0795 38.5946 63.0795 40.5363V58.1159C63.0795 60.0577 61.5054 61.6318 59.5636 61.6318H31.4363C29.4945 61.6318 27.9204 60.0577 27.9204 58.1159Z" stroke="black" stroke-width="2" stroke-linecap="round" stroke-linejoin="round"/>
<path d="M45.5 54.6C49.3835 54.6 52.5318 51.4517 52.5318 47.5682C52.5318 43.6847 49.3835 40.5363 45.5 40.5363C41.6164 40.5363 38.4681 43.6847 38.4681 47.5682C38.4681 51.4517 41.6164 54.6 45.5 54.6Z" stroke="black" stroke-width="2" stroke-linecap="round" stroke-linejoin="round"/>
<circle cx="71" cy="81" r="9.5" fill="#56AEFF" stroke="black"/>
<line x1="64" y1="81" x2="78" y2="81" stroke="white" stroke-width="2"/>
<path d="M71 74V88" stroke="white" stroke-width="2"/>
</svg>
