<svg width="26" height="35" viewBox="0 0 26 35" fill="none" xmlns="http://www.w3.org/2000/svg">
<path d="M12.6 34.9062C14.5868 34.9062 16.1984 32.953 16.1984 30.543H9.00173C9.00173 32.953 10.6133 34.9062 12.6 34.9062ZM24.7157 24.6996C23.629 23.2842 21.5955 21.1551 21.5955 14.1807C21.5955 8.88337 18.531 4.6428 14.3989 3.60243V2.18164C14.3989 0.976966 13.5934 0 12.6 0C11.6067 0 10.8012 0.976966 10.8012 2.18164V3.60243C6.66904 4.6428 3.60454 8.88337 3.60454 14.1807C3.60454 21.1551 1.5711 23.2842 0.484351 24.6996C0.146851 25.1393 -0.00277361 25.665 3.88906e-05 26.1797C0.00622639 27.2978 0.730164 28.3613 1.80566 28.3613H23.3944C24.4699 28.3613 25.1944 27.2978 25.2 26.1797C25.2029 25.665 25.0532 25.1386 24.7157 24.6996Z" fill="black"/>
</svg>
