<svg width="27" height="25" viewBox="0 0 27 25" fill="none" xmlns="http://www.w3.org/2000/svg">
<path d="M25.9301 7.9336C26.1314 7.73964 26.4308 7.92109 26.4308 8.22767V21.0228C26.4308 22.6808 25.3209 24.026 23.9529 24.026H2.47789C1.10989 24.026 0 22.6808 0 21.0228V8.23393C0 7.92109 0.294249 7.7459 0.50074 7.93986C1.65709 9.02854 3.19028 10.4113 8.45579 15.0476C9.54503 16.0111 11.3828 18.0383 13.2154 18.0258C15.0583 18.0446 16.9322 15.9736 17.9802 15.0476C23.2457 10.4113 24.7737 9.02228 25.9301 7.9336ZM13.2154 16.0174C14.413 16.0424 16.1372 14.1904 17.0045 13.4271C23.8548 7.40177 24.3762 6.8762 25.9559 5.37458C26.2553 5.09302 26.4308 4.65505 26.4308 4.19204V3.00326C26.4308 1.34521 25.3209 0 23.9529 0H2.47789C1.10989 0 0 1.34521 0 3.00326V4.19204C0 4.65505 0.175517 5.08676 0.474928 5.37458C2.05458 6.86995 2.57597 7.40177 9.4263 13.4271C10.2936 14.1904 12.0178 16.0424 13.2154 16.0174Z" fill="black"/>
</svg>
