<svg width="20" height="24" viewBox="0 0 20 24" fill="none" xmlns="http://www.w3.org/2000/svg">
<path d="M15.075 7.45386C15.075 8.03246 14.8853 8.58737 14.5478 8.99651C14.2102 9.40565 13.7524 9.6355 13.275 9.6355C12.7976 9.6355 12.3397 9.40565 12.0022 8.99651C11.6646 8.58737 11.475 8.03246 11.475 7.45386C11.475 6.87525 11.6646 6.32034 12.0022 5.9112C12.3397 5.50207 12.7976 5.27222 13.275 5.27222C13.7524 5.27222 14.2102 5.50207 14.5478 5.9112C14.8853 6.32034 15.075 6.87525 15.075 7.45386Z" fill="#8C8C8C"/>
<path fill-rule="evenodd" clip-rule="evenodd" d="M9.6237 0.0908203H9.7263C11.8044 0.0908203 13.4325 0.0908204 14.7033 0.298076C16.0029 0.509695 17.0289 0.952568 17.8344 1.92776C18.6399 2.90405 19.0044 4.14758 19.179 5.72382C19.35 7.26296 19.35 9.23626 19.35 11.755V11.851C19.35 13.9333 19.35 15.6372 19.2564 17.0247C19.1628 18.421 18.9711 19.5849 18.5409 20.5535C18.3519 20.98 18.1179 21.3629 17.8344 21.7065C17.0289 22.6828 16.0029 23.1246 14.7024 23.3362C13.4325 23.5435 11.8044 23.5435 9.7263 23.5435H9.6237C7.5456 23.5435 5.9175 23.5435 4.6467 23.3362C3.3471 23.1246 2.3211 22.6817 1.5156 21.7065C0.8019 20.8415 0.4329 19.7649 0.2376 18.4275C0.0441001 17.1153 0.00899998 15.4823 0.00179998 13.4556C-2.32598e-08 12.9396 0 12.3942 0 11.8182V11.755C0 9.23626 5.36442e-08 7.26296 0.171 5.72273C0.3456 4.14758 0.711 2.90405 1.5156 1.92776C2.3211 0.951478 3.3471 0.509695 4.6476 0.298076C5.9175 0.0908204 7.5456 0.0908203 9.6237 0.0908203ZM4.8267 1.91904C3.6765 2.10666 2.9826 2.46445 2.4705 3.08512C1.9575 3.70689 1.6632 4.54682 1.5084 5.94198C1.3518 7.36005 1.35 9.22317 1.35 11.8171V12.7378L2.2509 11.7822C2.64607 11.363 3.15794 11.1414 3.68283 11.1625C4.20772 11.1836 4.70638 11.4457 5.0778 11.8957L8.9388 16.5753C9.23842 16.9384 9.6341 17.1617 10.0562 17.206C10.4783 17.2503 10.8998 17.1127 11.2464 16.8175L11.5146 16.5884C12.0147 16.1625 12.6193 15.9548 13.2294 15.9994C13.8395 16.044 14.4191 16.3382 14.8734 16.8338L17.4204 19.6121C17.6778 18.9598 17.8299 18.1024 17.9109 16.8927C17.9991 15.5783 18 13.9399 18 11.8171C18 9.22317 17.9982 7.36005 17.8416 5.94198C17.6868 4.54682 17.3916 3.7058 16.8795 3.08403C16.3665 2.46335 15.6735 2.10666 14.5224 1.91904C13.3524 1.72923 11.8152 1.72705 9.675 1.72705C7.5348 1.72705 5.9967 1.72923 4.8267 1.91904Z" fill="#8C8C8C"/>
</svg>
