<svg width="42" height="42" viewBox="0 0 42 42" fill="none" xmlns="http://www.w3.org/2000/svg">
<rect width="42" height="42" stroke="black"/>
<path d="M32.9765 13.7812C32.7362 17.1175 30.2613 19.6875 27.5625 19.6875C24.8636 19.6875 22.3846 17.1183 22.1484 13.7812C21.9023 10.3105 24.3116 7.875 27.5625 7.875C30.8134 7.875 33.2226 10.3737 32.9765 13.7812Z" stroke="black" stroke-width="3" stroke-linecap="round" stroke-linejoin="round"/>
<path d="M27.5624 24.9375C22.2164 24.9375 17.0755 27.5929 15.7877 32.7641C15.617 33.4482 16.0461 34.125 16.7491 34.125H38.3766C39.0796 34.125 39.5062 33.4482 39.338 32.7641C38.0501 27.51 32.9092 24.9375 27.5624 24.9375Z" stroke="black" stroke-width="3" stroke-miterlimit="10"/>
<path d="M16.4063 15.2529C16.2144 17.9173 14.2144 20.0156 12.0586 20.0156C9.90286 20.0156 7.89966 17.9181 7.71099 15.2529C7.51493 12.4811 9.46154 10.5 12.0586 10.5C14.6558 10.5 16.6024 12.5319 16.4063 15.2529Z" stroke="black" stroke-width="3" stroke-linecap="round" stroke-linejoin="round"/>
<path d="M16.8984 25.1016C15.4177 24.4232 13.7869 24.1623 12.0585 24.1623C7.79291 24.1623 3.68315 26.2828 2.65366 30.4131C2.51831 30.9594 2.8612 31.5 3.42229 31.5H12.6328" stroke="black" stroke-width="3" stroke-miterlimit="10" stroke-linecap="round"/>
</svg>
