<svg width="32" height="32" viewBox="0 0 32 32" fill="none" xmlns="http://www.w3.org/2000/svg">
<path d="M17.3333 12H14.6666V9.33333H17.3333M17.3333 22.6667H14.6666V14.6667H17.3333M16 2.66667C14.249 2.66667 12.5152 3.01154 10.8975 3.68161C9.27984 4.35167 7.80998 5.3338 6.57187 6.57191C4.07138 9.0724 2.66663 12.4638 2.66663 16C2.66663 19.5362 4.07138 22.9276 6.57187 25.4281C7.80998 26.6662 9.27984 27.6483 10.8975 28.3184C12.5152 28.9885 14.249 29.3333 16 29.3333C19.5362 29.3333 22.9276 27.9286 25.428 25.4281C27.9285 22.9276 29.3333 19.5362 29.3333 16C29.3333 14.249 28.9884 12.5152 28.3184 10.8976C27.6483 9.27988 26.6662 7.81002 25.428 6.57191C24.1899 5.3338 22.7201 4.35167 21.1024 3.68161C19.4847 3.01154 17.7509 2.66667 16 2.66667Z" fill="black"/>
</svg>
