<svg width="33" height="33" viewBox="0 0 33 33" fill="none" xmlns="http://www.w3.org/2000/svg">
<g clip-path="url(#clip0_3_46)">
<path d="M16.5 2.75C24.0941 2.75 30.25 8.90588 30.25 16.5C30.25 24.0941 24.0941 30.25 16.5 30.25C8.90588 30.25 2.75 24.0941 2.75 16.5C2.75 8.90588 8.90588 2.75 16.5 2.75ZM16.5 5.5C13.5826 5.5 10.7847 6.65893 8.72183 8.72183C6.65893 10.7847 5.5 13.5826 5.5 16.5C5.5 19.4174 6.65893 22.2153 8.72183 24.2782C10.7847 26.3411 13.5826 27.5 16.5 27.5C19.4174 27.5 22.2153 26.3411 24.2782 24.2782C26.3411 22.2153 27.5 19.4174 27.5 16.5C27.5 13.5826 26.3411 10.7847 24.2782 8.72183C22.2153 6.65893 19.4174 5.5 16.5 5.5ZM10.3125 14.4375C10.8595 14.4375 11.3841 14.6548 11.7709 15.0416C12.1577 15.4284 12.375 15.953 12.375 16.5C12.375 17.047 12.1577 17.5716 11.7709 17.9584C11.3841 18.3452 10.8595 18.5625 10.3125 18.5625C9.76549 18.5625 9.24089 18.3452 8.85409 17.9584C8.4673 17.5716 8.25 17.047 8.25 16.5C8.25 15.953 8.4673 15.4284 8.85409 15.0416C9.24089 14.6548 9.76549 14.4375 10.3125 14.4375ZM16.5 14.4375C17.047 14.4375 17.5716 14.6548 17.9584 15.0416C18.3452 15.4284 18.5625 15.953 18.5625 16.5C18.5625 17.047 18.3452 17.5716 17.9584 17.9584C17.5716 18.3452 17.047 18.5625 16.5 18.5625C15.953 18.5625 15.4284 18.3452 15.0416 17.9584C14.6548 17.5716 14.4375 17.047 14.4375 16.5C14.4375 15.953 14.6548 15.4284 15.0416 15.0416C15.4284 14.6548 15.953 14.4375 16.5 14.4375ZM22.6875 14.4375C23.2345 14.4375 23.7591 14.6548 24.1459 15.0416C24.5327 15.4284 24.75 15.953 24.75 16.5C24.75 17.047 24.5327 17.5716 24.1459 17.9584C23.7591 18.3452 23.2345 18.5625 22.6875 18.5625C22.1405 18.5625 21.6159 18.3452 21.2291 17.9584C20.8423 17.5716 20.625 17.047 20.625 16.5C20.625 15.953 20.8423 15.4284 21.2291 15.0416C21.6159 14.6548 22.1405 14.4375 22.6875 14.4375Z" fill="black"/>
</g>
<defs>
<clipPath id="clip0_3_46">
<rect width="33" height="33" fill="white"/>
</clipPath>
</defs>
</svg>
