<svg width="24" height="28" viewBox="0 0 24 28" fill="none" xmlns="http://www.w3.org/2000/svg">
<path d="M12.05 21.1346C14.6713 21.1346 16.8875 19.1439 17.7988 16.3623H6.3013C7.2013 19.1439 9.4288 21.1346 12.05 21.1346ZM8.11255 12.2717C8.5601 12.2717 8.98932 12.0562 9.30579 11.6727C9.62226 11.2891 9.80005 10.7689 9.80005 10.2264C9.80005 9.684 9.62226 9.16377 9.30579 8.7802C8.98932 8.39664 8.5601 8.18115 8.11255 8.18115C7.665 8.18115 7.23577 8.39664 6.91931 8.7802C6.60284 9.16377 6.42505 9.684 6.42505 10.2264C6.42505 10.7689 6.60284 11.2891 6.91931 11.6727C7.23577 12.0562 7.665 12.2717 8.11255 12.2717ZM15.9875 12.2717C16.4351 12.2717 16.8643 12.0562 17.1808 11.6727C17.4973 11.2891 17.675 10.7689 17.675 10.2264C17.675 9.684 17.4973 9.16377 17.1808 8.7802C16.8643 8.39664 16.4351 8.18115 15.9875 8.18115C15.54 8.18115 15.1108 8.39664 14.7943 8.7802C14.4778 9.16377 14.3 9.684 14.3 10.2264C14.3 10.7689 14.4778 11.2891 14.7943 11.6727C15.1108 12.0562 15.54 12.2717 15.9875 12.2717ZM12.05 24.5435C9.6631 24.5435 7.37392 23.3942 5.68609 21.3485C3.99826 19.3028 3.05005 16.5283 3.05005 13.6353C3.05005 10.7422 3.99826 7.96767 5.68609 5.92199C7.37392 3.8763 9.6631 2.72705 12.05 2.72705C14.437 2.72705 16.7262 3.8763 18.414 5.92199C20.1018 7.96767 21.05 10.7422 21.05 13.6353C21.05 16.5283 20.1018 19.3028 18.414 21.3485C16.7262 23.3942 14.437 24.5435 12.05 24.5435ZM12.05 0C5.8288 0 0.800049 6.13586 0.800049 13.6353C0.800049 17.2515 1.98531 20.7197 4.0951 23.2768C5.13976 24.543 6.37995 25.5474 7.74486 26.2326C9.10977 26.9178 10.5727 27.2705 12.05 27.2705C15.0337 27.2705 17.8952 25.8339 20.005 23.2768C22.1148 20.7197 23.3 17.2515 23.3 13.6353C23.3 11.8446 23.0091 10.0716 22.4437 8.41727C21.8783 6.76296 21.0497 5.25982 20.005 3.99367C18.9603 2.72752 17.7202 1.72316 16.3552 1.03792C14.9903 0.352686 13.5274 0 12.05 0Z" fill="#8C8C8C"/>
</svg>
