<svg width="20" height="24" viewBox="0 0 20 24" fill="none" xmlns="http://www.w3.org/2000/svg">
<path d="M17.6742 14.3242L17.5851 13.2388L17.5554 13.2421L17.5266 13.2486L17.6742 14.3242ZM17.6742 14.3242L17.7642 15.4095L17.7939 15.4062L17.8227 15.4008L17.6742 14.3242ZM14.0382 20.304L14.6079 19.4597L14.6007 19.4532L14.0382 20.304ZM14.0382 20.304L13.4685 21.1483L13.4757 21.156L14.0382 20.304ZM5.76182 20.304L5.19212 19.4608L5.17772 19.475L5.16422 19.4892L5.76182 20.304ZM5.76182 20.304L6.33152 21.1494L6.34592 21.1352L6.35942 21.12L5.76182 20.304ZM2.12492 9.66417V8.57335H2.07992L2.03582 8.57881L2.12492 9.66417ZM2.12492 9.66417V10.755H2.16992L2.21492 10.7495L2.12492 9.66417ZM12.7179 2.46148C12.7029 2.25169 12.6816 2.04252 12.6558 1.83426C12.6277 1.60511 12.57 1.38277 12.4848 1.17541L10.8855 2.17678C10.8648 2.12769 10.8693 2.11024 10.881 2.19641C10.8945 2.2935 10.9062 2.42876 10.9269 2.67965L12.7179 2.46148ZM12.8034 3.49776C12.8601 3.58721 12.8412 3.62757 12.8097 3.41486C12.78 3.21197 12.7566 2.92726 12.7179 2.46148L10.926 2.67856C10.962 3.10834 10.9926 3.49449 11.0385 3.8021C11.0826 4.09662 11.16 4.48386 11.3715 4.81984L12.8034 3.49776ZM12.8034 3.49776L11.3715 4.81984C11.5641 5.12619 11.8202 5.36528 12.1138 5.51281C12.4073 5.66033 12.7279 5.71104 13.0428 5.65977L12.8034 3.49776ZM13.4676 2.83782C13.2659 3.04443 13.0585 3.24271 12.8457 3.43231C12.699 3.55558 12.7107 3.51194 12.8034 3.49776L13.0428 5.65977C13.3884 5.60305 13.6692 5.39579 13.8726 5.22344C14.0841 5.04673 14.3316 4.8002 14.607 4.52641L13.4676 2.83782ZM14.382 2.12878C14.201 2.20217 14.0306 2.30966 13.8771 2.4473C13.7511 2.55639 13.6098 2.6971 13.4676 2.83782L14.607 4.52641C14.7681 4.36715 14.8554 4.28097 14.922 4.22425C14.9805 4.17298 14.9724 4.19043 14.9301 4.2068L14.382 2.12878ZM15.6456 2.20514C15.2459 1.99521 14.797 1.96808 14.382 2.12878L14.9301 4.2068L15.6456 2.20514ZM16.497 3.02108C16.3759 2.86999 16.2507 2.72374 16.1217 2.58257C15.9801 2.42716 15.8191 2.29979 15.6447 2.20514L14.9301 4.2068C14.8887 4.18498 14.8824 4.16753 14.9364 4.22534C14.9976 4.29079 15.0777 4.38569 15.2244 4.5635L16.497 3.02108ZM17.3016 3.99627L16.497 3.02108L15.2244 4.5635L16.029 5.53869L17.3016 3.99627ZM17.9748 5.02818C17.8967 4.81684 17.7916 4.62173 17.6634 4.45005C17.5467 4.29432 17.426 4.14299 17.3016 3.99627L16.029 5.53978C16.1757 5.71758 16.254 5.81467 16.308 5.88884C16.3557 5.95429 16.3413 5.94666 16.3233 5.89648L17.9748 5.02818ZM18.0378 6.5597C18.1704 6.05677 18.148 5.51263 17.9748 5.02818L16.3233 5.89648L18.0378 6.5597ZM17.4528 7.66797C17.5648 7.50699 17.6723 7.34145 17.775 7.17165C17.8704 7.0102 17.973 6.80949 18.0378 6.5597L16.3233 5.89648C16.3368 5.84521 16.3503 5.8343 16.3089 5.90629C16.2621 5.98592 16.1919 6.09173 16.0596 6.28699L17.4528 7.66797ZM16.9083 8.47409C16.8966 8.58644 16.8606 8.59953 16.9623 8.42173C17.0586 8.25265 17.208 8.03012 17.4528 7.66797L16.0596 6.28699C15.8346 6.62078 15.6303 6.92076 15.4836 7.1771C15.3423 7.42363 15.1713 7.76396 15.1245 8.18284L16.9083 8.47409ZM16.9083 8.47409L15.1245 8.18284C15.0822 8.56457 15.1241 8.95307 15.2458 9.30886C15.3675 9.66465 15.5648 9.97504 15.8175 10.2085L16.9083 8.47409ZM17.7633 8.57771C17.5001 8.55102 17.2378 8.51354 16.9767 8.46536C16.8012 8.42718 16.8345 8.40536 16.9083 8.47409L15.8175 10.2085C16.0947 10.4648 16.4133 10.5586 16.6581 10.6121C16.911 10.6666 17.2296 10.7048 17.5842 10.7484L17.7633 8.57771ZM18.8244 8.85915C18.6533 8.75586 18.4699 8.68591 18.2808 8.65189C18.109 8.62069 17.9364 8.59596 17.7633 8.57771L17.5842 10.7484C17.7175 10.7627 17.8504 10.7809 17.9829 10.803C18.0549 10.8183 18.0396 10.8237 17.9991 10.7986L18.8244 8.85915ZM19.6731 9.99687C19.5132 9.50563 19.2116 9.10138 18.8244 8.85915L18 10.8008L19.6731 9.99687ZM19.7991 11.3037C19.7991 11.0811 19.7991 10.8597 19.7892 10.6721C19.7799 10.4406 19.7404 10.2123 19.6722 9.99578L18 10.8008C17.9838 10.7495 17.9892 10.7321 17.9946 10.8193C18 10.9175 18 11.0539 18 11.3059L19.7991 11.3037ZM19.7991 12.6825V11.3037H17.9991V12.6825H19.7991ZM19.6731 13.9893C19.7523 13.746 19.7784 13.5126 19.7892 13.313C19.7991 13.1264 19.7991 12.905 19.7991 12.6825H17.9991C17.9991 12.9344 17.9991 13.0708 17.9937 13.169C17.9883 13.2562 17.9829 13.2388 17.9991 13.1875L19.6731 13.9893ZM18.8244 15.127C19.2116 14.8848 19.5132 14.4805 19.6731 13.9893L18 13.1886L18.8244 15.127ZM17.7633 15.4084C17.9469 15.3866 18.1278 15.3648 18.2808 15.3343C18.4428 15.3015 18.6318 15.247 18.8244 15.127L18 13.1886C18.0396 13.1635 18.0549 13.169 17.9838 13.1832C17.8514 13.2064 17.7184 13.2249 17.5851 13.2388L17.7633 15.4084ZM16.9092 15.5121C16.8345 15.5808 16.8012 15.559 16.9767 15.5208C17.1441 15.4848 17.379 15.4553 17.7633 15.4084L17.5842 13.2377C17.2305 13.2813 16.911 13.3184 16.6581 13.3741C16.4142 13.4275 16.0947 13.5213 15.8175 13.7777L16.9092 15.5121ZM16.9092 15.5121L15.8175 13.7777C15.5648 14.0111 15.3675 14.3215 15.2458 14.6773C15.1241 15.0331 15.0822 15.4216 15.1245 15.8033L16.9092 15.5121ZM17.4528 16.3171C17.2824 16.0729 17.1188 15.8219 16.9623 15.5644C16.8606 15.3866 16.8975 15.3997 16.9092 15.5121L15.1245 15.8033C15.1713 16.2222 15.3423 16.5625 15.4845 16.809C15.6312 17.0654 15.8346 17.3654 16.0596 17.6992L17.4528 16.3171ZM18.0378 17.4254C17.9772 17.2063 17.8885 17.0002 17.775 16.8145C17.685 16.6607 17.5689 16.4905 17.4528 16.3171L16.0596 17.6992C16.191 17.8944 16.2621 17.9991 16.3089 18.0799C16.3512 18.1508 16.3377 18.142 16.3233 18.0908L18.0378 17.4254ZM17.9748 18.958C18.1483 18.4732 18.1706 17.9286 18.0378 17.4254L16.3233 18.0908L17.9748 18.958ZM17.3016 19.9899C17.4321 19.8317 17.5608 19.6768 17.6634 19.535C17.7714 19.3845 17.8884 19.1979 17.9748 18.9569L16.3233 18.0897C16.3413 18.0395 16.3557 18.0329 16.308 18.0984C16.254 18.1726 16.1757 18.2686 16.029 18.4475L17.3016 19.9899ZM16.497 20.964L17.3016 19.9899L16.029 18.4475L15.2244 19.4216L16.497 20.964ZM15.6456 21.781C15.8201 21.686 15.981 21.5583 16.1226 21.4025C16.2387 21.2792 16.3674 21.1221 16.497 20.964L15.2244 19.4216C15.1311 19.5375 15.035 19.6503 14.9364 19.7597C14.8824 19.8186 14.8887 19.8012 14.9301 19.7793L15.6456 21.781ZM14.382 21.8574C14.797 22.0181 15.2459 21.9909 15.6456 21.781L14.9301 19.7793L14.382 21.8574ZM13.4676 21.1483C13.6098 21.289 13.7502 21.4298 13.8771 21.5388C14.0103 21.6534 14.1759 21.7777 14.382 21.8574L14.9301 19.7793C14.9724 19.7957 14.9805 19.8121 14.9211 19.7619C14.8141 19.6648 14.7093 19.5641 14.607 19.4597L13.4676 21.1483ZM12.8034 20.4895C12.7107 20.4731 12.699 20.4295 12.8457 20.5527C12.9852 20.6705 13.1679 20.8505 13.4667 21.1472L14.607 19.4597C14.3316 19.1859 14.0841 18.9394 13.8726 18.7616C13.6692 18.5893 13.3884 18.3831 13.0428 18.3264L12.8034 20.4895ZM12.8034 20.4895L13.0428 18.3264C12.7279 18.2751 12.4073 18.3258 12.1138 18.4733C11.8202 18.6209 11.5641 18.86 11.3715 19.1663L12.8034 20.4895ZM12.717 21.5247C12.7557 21.0589 12.78 20.7731 12.8097 20.5713C12.8412 20.3586 12.8592 20.3978 12.8025 20.4884L11.3715 19.1652C11.16 19.5012 11.0826 19.8884 11.0385 20.184C10.9935 20.4917 10.9629 20.8778 10.9269 21.3076L12.717 21.5247ZM12.4839 22.8107C12.5829 22.5773 12.6279 22.3482 12.6549 22.1519C12.6819 21.9664 12.6981 21.7472 12.717 21.5247L10.9269 21.3076C10.9149 21.4695 10.8993 21.6299 10.8801 21.7908C10.8684 21.8781 10.8639 21.8595 10.8846 21.8105L12.4839 22.8107ZM11.547 23.8394C11.9517 23.6451 12.2845 23.2796 12.4839 22.8107L10.8855 21.8115L11.547 23.8394ZM10.467 23.9921C10.6515 23.9921 10.8342 23.9921 10.989 23.9801C11.1528 23.967 11.3454 23.9376 11.547 23.8394L10.8855 21.8115C10.9278 21.7919 10.9422 21.7985 10.8702 21.805C10.7365 21.8118 10.6026 21.814 10.4688 21.8115L10.467 23.9921ZM9.33032 23.9921H10.467L10.4679 21.8105H9.33032V23.9921ZM8.25212 23.8394C8.45282 23.9354 8.64542 23.967 8.81012 23.9801C8.96402 23.9921 9.14672 23.9921 9.33032 23.9921V21.8105C9.12242 21.8105 9.00992 21.8105 8.92892 21.8039C8.85692 21.7974 8.87132 21.7908 8.91362 21.8105L8.25212 23.8394ZM7.31342 22.8107C7.51328 23.28 7.84681 23.6455 8.25212 23.8394L8.91362 21.8105L7.31342 22.8107ZM7.08122 21.5247C7.09922 21.7472 7.11722 21.9664 7.14242 22.1519C7.16942 22.3482 7.21442 22.5773 7.31342 22.8107L8.91542 21.8115C8.93612 21.8595 8.93162 21.8781 8.91992 21.7919C8.90076 21.6314 8.88545 21.4703 8.87402 21.3087L7.08122 21.5247ZM6.99572 20.4884C6.93902 20.3989 6.95702 20.3575 6.98852 20.5713C7.01822 20.7731 7.04252 21.0589 7.08122 21.5247L8.87222 21.3076C8.83622 20.8778 8.80562 20.4917 8.75972 20.184C8.71562 19.8895 8.63822 19.5023 8.42672 19.1663L6.99572 20.4884ZM6.99572 20.4884L8.42672 19.1663C8.23411 18.86 7.97802 18.6209 7.68447 18.4733C7.39092 18.3258 7.07037 18.2751 6.75542 18.3264L6.99572 20.4884ZM6.33062 21.1483C6.63032 20.8516 6.81302 20.6705 6.95252 20.5538C7.09922 20.4306 7.08842 20.4742 6.99572 20.4884L6.75542 18.3264C6.40982 18.3831 6.12902 18.5904 5.92562 18.7627C5.71412 18.9394 5.46662 19.1859 5.19122 19.4597L6.33062 21.1483ZM5.41622 21.8574C5.59727 21.784 5.76766 21.6765 5.92112 21.5388C6.04712 21.4298 6.18842 21.289 6.33062 21.1483L5.19212 19.4608C5.08953 19.5652 4.98539 19.6659 4.87802 19.763C4.81952 19.8143 4.82762 19.7979 4.86992 19.7804L5.41622 21.8574ZM4.15262 21.781C4.55232 21.9909 5.00127 22.0181 5.41622 21.8574L4.86812 19.7793L4.15262 21.781ZM3.30032 20.9651C3.43082 21.1232 3.55952 21.2792 3.67652 21.4036C3.79982 21.5345 3.95372 21.6774 4.15352 21.7821L4.86812 19.7793C4.90952 19.8012 4.91582 19.8186 4.86182 19.7608C4.76315 19.6515 4.66711 19.5387 4.57382 19.4226L3.30032 20.9651ZM2.49662 19.9899L3.30122 20.9651L4.57382 19.4226L3.76922 18.4475L2.49662 19.9899ZM1.82342 18.958C1.90892 19.1979 2.02682 19.3856 2.13482 19.5361C2.23742 19.6768 2.36612 19.8328 2.49662 19.9899L3.76922 18.4475C3.67347 18.3344 3.58043 18.218 3.49022 18.0984C3.44252 18.0329 3.45692 18.0406 3.47492 18.0908L1.82342 18.958ZM1.76042 17.4264C1.62783 17.9294 1.65021 18.4735 1.82342 18.958L3.47492 18.0908L1.76042 17.4264ZM2.34542 16.3182C2.23342 16.4792 2.12596 16.6447 2.02322 16.8145C1.90965 17.0005 1.82097 17.207 1.76042 17.4264L3.47492 18.0908C3.46052 18.142 3.44792 18.1518 3.48932 18.0799C3.53612 18.0002 3.60632 17.8944 3.73862 17.6992L2.34542 16.3182ZM2.88902 15.5121C2.90162 15.3997 2.93762 15.3866 2.83592 15.5644C2.73962 15.7335 2.59022 15.956 2.34542 16.3182L3.73862 17.6992C3.96362 17.3654 4.16792 17.0654 4.31462 16.809C4.45592 16.5625 4.62692 16.2222 4.67372 15.8033L2.88902 15.5121ZM2.88902 15.5121L4.67372 15.8033C4.71602 15.4216 4.67418 15.0331 4.55247 14.6773C4.43075 14.3215 4.23348 14.0111 3.98072 13.7777L2.88902 15.5121ZM2.03402 15.4084C2.41922 15.4553 2.65502 15.4848 2.82152 15.5208C2.99702 15.559 2.96372 15.5808 2.88902 15.5121L3.98072 13.7777C3.70352 13.5213 3.38492 13.4275 3.14012 13.3741C2.88722 13.3195 2.56862 13.2813 2.21312 13.2377L2.03402 15.4084ZM0.973818 15.127C1.16642 15.247 1.35542 15.3015 1.51742 15.3343C1.67042 15.3648 1.85132 15.3877 2.03492 15.4095L2.21312 13.2377C2.07981 13.2242 1.94775 13.206 1.81532 13.1832C1.74332 13.1679 1.75862 13.1624 1.79912 13.1875L0.973818 15.127ZM0.126018 13.9904C0.285976 14.4816 0.587526 14.8859 0.974718 15.1281L1.80002 13.1886L0.126018 13.9904ZM1.83655e-05 12.6836C1.83655e-05 12.9061 1.83991e-05 13.1275 0.0099184 13.3151C0.0207184 13.5137 0.0459184 13.7471 0.126918 13.9915L1.80002 13.1875C1.81622 13.2388 1.81082 13.2562 1.80632 13.169C1.80038 13.0073 1.79828 12.8454 1.80002 12.6836H1.83655e-05ZM1.83655e-05 11.3048V12.6836H1.80002V11.3048H1.83655e-05ZM0.126018 9.99687C0.0582218 10.2135 0.0190405 10.4417 0.0099184 10.6732C-0.000881601 10.8608 1.83655e-05 11.0822 1.83655e-05 11.3059H1.80002C1.80002 11.0528 1.80002 10.9164 1.80632 10.8183C1.81082 10.731 1.81622 10.7484 1.80002 10.7997L0.126018 9.99687ZM0.974718 8.86133C0.587851 9.10303 0.286343 9.50644 0.126018 9.99687L1.80002 10.7997L0.974718 8.86133ZM2.03582 8.57771C1.85222 8.60062 1.67132 8.62135 1.51832 8.65407C1.35632 8.6868 1.16732 8.74134 0.974718 8.86133L1.80002 10.7997C1.75952 10.8248 1.74512 10.8193 1.81622 10.8052C1.94864 10.7819 2.0816 10.7634 2.21492 10.7495L2.03582 8.57771ZM2.89082 8.47518C2.96552 8.40646 2.99882 8.42827 2.82242 8.46645C2.65592 8.50245 2.42012 8.5319 2.03582 8.57881L2.21492 10.7495C2.56862 10.7059 2.88812 10.6688 3.14192 10.6132C3.38582 10.5597 3.70532 10.4659 3.98252 10.2096L2.89082 8.47518ZM2.89082 8.47518L3.98252 10.2096C4.23512 9.97601 4.43221 9.66556 4.55377 9.30978C4.67532 8.954 4.71702 8.56556 4.67462 8.18393L2.89082 8.47518ZM2.34632 7.66906C2.59112 8.03121 2.74052 8.25374 2.83772 8.42282C2.93942 8.60062 2.90342 8.58753 2.89082 8.47518L4.67462 8.18393C4.62782 7.76505 4.45772 7.42581 4.31552 7.17819C4.16882 6.92185 3.96452 6.62187 3.73952 6.28808L2.34632 7.66906ZM1.76132 6.5597C1.82702 6.81059 1.92872 7.0102 2.02412 7.17274C2.11412 7.32545 2.23022 7.49671 2.34632 7.66906L3.73952 6.28808C3.65341 6.16375 3.57027 6.03753 3.49022 5.90739C3.44792 5.83648 3.46232 5.84521 3.47582 5.89648L1.76132 6.5597ZM1.82432 5.02928C1.65133 5.5134 1.62895 6.0571 1.76132 6.5597L3.47582 5.89648L1.82432 5.02928ZM2.49752 3.99627C2.36702 4.15444 2.23832 4.30933 2.13572 4.45114C2.0075 4.62282 1.90241 4.81793 1.82432 5.02928L3.47582 5.89648C3.45782 5.94666 3.44342 5.95429 3.49112 5.88775C3.54512 5.81358 3.62342 5.71758 3.77012 5.53869L2.49752 3.99627ZM3.30212 3.02217L2.49752 3.99627L3.77012 5.53869L4.57562 4.56459L3.30212 3.02217ZM4.15352 2.20514C3.97908 2.30012 3.8181 2.42786 3.67652 2.58366C3.54803 2.72513 3.42317 2.87137 3.30212 3.02217L4.57562 4.56459C4.72232 4.38569 4.80152 4.29079 4.86272 4.22643C4.91672 4.16753 4.91042 4.18498 4.86902 4.2068L4.15352 2.20514ZM5.41712 2.12878C5.00217 1.96808 4.55322 1.99521 4.15352 2.20514L4.86902 4.2068L5.41712 2.12878ZM6.33062 2.83782C6.18842 2.6971 6.04892 2.55748 5.92202 2.44839C5.76862 2.31037 5.59823 2.2025 5.41712 2.12878L4.86902 4.2068C4.82672 4.19043 4.81862 4.17407 4.87802 4.22425C4.94372 4.28206 5.03102 4.36715 5.19212 4.5275L6.33062 2.83782ZM6.99662 3.49776C7.08932 3.51304 7.10012 3.55667 6.95342 3.43341C6.74096 3.24377 6.53384 3.04549 6.33242 2.83891L5.19212 4.5275C5.46752 4.8002 5.71412 5.04673 5.92562 5.22562C6.12902 5.39688 6.40982 5.60305 6.75542 5.65977L6.99662 3.49776ZM6.99662 3.49776L6.75632 5.65977C7.07128 5.71104 7.39182 5.66033 7.68537 5.51281C7.97892 5.36528 8.23501 5.12619 8.42762 4.81984L6.99662 3.49776ZM7.08212 2.46148C7.04342 2.92836 7.01912 3.21415 6.98942 3.41595C6.95792 3.62866 6.93992 3.5883 6.99662 3.49776L8.42762 4.81984C8.63912 4.48386 8.71652 4.09771 8.76062 3.8021C8.80562 3.49558 8.83802 3.10834 8.87312 2.67856L7.08212 2.46148ZM7.31432 1.1765C7.2291 1.38386 7.17139 1.60621 7.14332 1.83535C7.11812 2.02079 7.10012 2.24005 7.08212 2.46258L8.87312 2.67856C8.88486 2.51706 8.89987 2.35702 8.91812 2.19641C8.93072 2.10915 8.93522 2.12878 8.91452 2.17678L7.31432 1.1765ZM8.25302 0.147854C7.84771 0.341727 7.51418 0.707212 7.31432 1.1765L8.91452 2.17678L8.25302 0.147854ZM9.33122 -0.00486055C9.14762 -0.00486055 8.96492 -0.00486051 8.81012 0.00713851C8.61917 0.0181947 8.43086 0.0656834 8.25212 0.147854L8.91542 2.17678C8.87312 2.19641 8.85872 2.18987 8.93072 2.18442C9.01172 2.17787 9.12422 2.17678 9.33212 2.17678L9.33122 -0.00486055ZM10.4688 -0.00486055H9.33122V2.17678H10.4688V-0.00486055ZM11.547 0.147854C11.3683 0.0656834 11.18 0.0181947 10.989 0.00713851C10.836 -0.00595133 10.6533 -0.00486055 10.4697 -0.00486055V2.17678C10.6776 2.17678 10.7901 2.17678 10.8711 2.18442C10.9431 2.18987 10.9278 2.19641 10.8855 2.17678L11.547 0.147854ZM12.4857 1.1765C12.2859 0.707212 11.9523 0.341727 11.547 0.147854L10.8855 2.17678L12.4857 1.1765ZM12.6 11.9942C12.6 12.8621 12.3156 13.6944 11.8092 14.3081C11.3029 14.9218 10.6161 15.2666 9.90002 15.2666V17.4483C11.0935 17.4483 12.2381 16.8736 13.082 15.8508C13.9259 14.828 14.4 13.4407 14.4 11.9942H12.6ZM9.90002 8.7217C10.6161 8.7217 11.3029 9.06648 11.8092 9.68018C12.3156 10.2939 12.6 11.1263 12.6 11.9942H14.4C14.4 10.5476 13.9259 9.16037 13.082 8.13753C12.2381 7.11469 11.0935 6.54006 9.90002 6.54006V8.7217ZM7.20002 11.9942C7.20002 11.1263 7.48448 10.2939 7.99083 9.68018C8.49718 9.06648 9.18393 8.7217 9.90002 8.7217V6.54006C8.70654 6.54006 7.56195 7.11469 6.71804 8.13753C5.87412 9.16037 5.40002 10.5476 5.40002 11.9942H7.20002ZM9.90002 15.2666C9.18393 15.2666 8.49718 14.9218 7.99083 14.3081C7.48448 13.6944 7.20002 12.8621 7.20002 11.9942H5.40002C5.40002 13.4407 5.87412 14.828 6.71804 15.8508C7.56195 16.8736 8.70654 17.4483 9.90002 17.4483V15.2666Z" fill="white"/>
</svg>
