<svg width="24" height="25" viewBox="0 0 24 25" fill="none" xmlns="http://www.w3.org/2000/svg">
<path d="M8.17278 2.5753H22.9M8.17278 12.2715H17.0091M8.17278 21.9677H22.9M3.26369 21.9677C3.26369 22.2891 3.16024 22.5974 2.97612 22.8247C2.79199 23.052 2.54226 23.1797 2.28187 23.1797C2.02147 23.1797 1.77174 23.052 1.58762 22.8247C1.40349 22.5974 1.30005 22.2891 1.30005 21.9677C1.30005 21.6462 1.40349 21.3379 1.58762 21.1106C1.77174 20.8833 2.02147 20.7556 2.28187 20.7556C2.54226 20.7556 2.79199 20.8833 2.97612 21.1106C3.16024 21.3379 3.26369 21.6462 3.26369 21.9677ZM3.26369 12.2715C3.26369 12.5929 3.16024 12.9012 2.97612 13.1285C2.79199 13.3558 2.54226 13.4835 2.28187 13.4835C2.02147 13.4835 1.77174 13.3558 1.58762 13.1285C1.40349 12.9012 1.30005 12.5929 1.30005 12.2715C1.30005 11.95 1.40349 11.6418 1.58762 11.4145C1.77174 11.1872 2.02147 11.0595 2.28187 11.0595C2.54226 11.0595 2.79199 11.1872 2.97612 11.4145C3.16024 11.6418 3.26369 11.95 3.26369 12.2715ZM3.26369 2.5753C3.26369 2.89675 3.16024 3.20503 2.97612 3.43233C2.79199 3.65963 2.54226 3.78733 2.28187 3.78733C2.02147 3.78733 1.77174 3.65963 1.58762 3.43233C1.40349 3.20503 1.30005 2.89675 1.30005 2.5753C1.30005 2.25386 1.40349 1.94557 1.58762 1.71827C1.77174 1.49098 2.02147 1.36328 2.28187 1.36328C2.54226 1.36328 2.79199 1.49098 2.97612 1.71827C3.16024 1.94557 3.26369 2.25386 3.26369 2.5753Z" stroke="#8C8C8C" stroke-width="2" stroke-linecap="round"/>
</svg>
