<svg width="17" height="28" viewBox="0 0 17 28" fill="none" xmlns="http://www.w3.org/2000/svg">
<path d="M8.30007 12.9535C7.53284 12.9535 6.79703 12.5943 6.25451 11.9551C5.712 11.3158 5.40722 10.4488 5.40722 9.54468C5.40722 8.6406 5.712 7.77356 6.25451 7.13428C6.79703 6.49501 7.53284 6.13586 8.30007 6.13586C9.06731 6.13586 9.80312 6.49501 10.3456 7.13428C10.8881 7.77356 11.1929 8.6406 11.1929 9.54468C11.1929 9.99233 11.1181 10.4356 10.9727 10.8492C10.8273 11.2628 10.6143 11.6385 10.3456 11.9551C10.077 12.2716 9.7581 12.5227 9.40712 12.694C9.05614 12.8653 8.67997 12.9535 8.30007 12.9535ZM8.30007 0C6.15182 0 4.09155 1.0056 2.57251 2.79557C1.05346 4.58555 0.200073 7.01327 0.200073 9.54468C0.200073 16.7032 8.30007 27.2705 8.30007 27.2705C8.30007 27.2705 16.4001 16.7032 16.4001 9.54468C16.4001 7.01327 15.5467 4.58555 14.0276 2.79557C12.5086 1.0056 10.4483 0 8.30007 0Z" fill="#8C8C8C"/>
</svg>
