<svg width="31" height="40" viewBox="0 0 31 40" fill="none" xmlns="http://www.w3.org/2000/svg">
<path d="M15.5 15.9989C16.1894 15.9989 16.8721 15.8178 17.5091 15.4661C18.146 15.1143 18.7248 14.5987 19.2123 13.9488C19.6998 13.2988 20.0865 12.5272 20.3504 11.678C20.6142 10.8288 20.75 9.91861 20.75 8.99943C20.75 8.08025 20.6142 7.17007 20.3504 6.32086C20.0865 5.47165 19.6998 4.70004 19.2123 4.05009C18.7248 3.40013 18.146 2.88455 17.5091 2.5328C16.8721 2.18105 16.1894 2 15.5 2C14.1076 2 12.7723 2.73744 11.7877 4.05009C10.8031 5.36273 10.25 7.14307 10.25 8.99943C10.25 10.8558 10.8031 12.6361 11.7877 13.9488C12.7723 15.2614 14.1076 15.9989 15.5 15.9989ZM2 36.7972V37.9971H29V36.7972C29 32.3175 29 30.0777 28.346 28.3659C27.7708 26.8607 26.8529 25.6371 25.724 24.8701C24.44 23.9982 22.76 23.9982 19.4 23.9982H11.6C8.24 23.9982 6.56 23.9982 5.276 24.8701C4.14708 25.6371 3.22923 26.8607 2.654 28.3659C2 30.0777 2 32.3175 2 36.7972Z" stroke="black" stroke-width="3" stroke-linecap="round" stroke-linejoin="round"/>
</svg>
