<svg width="91" height="91" viewBox="0 0 91 91" fill="none" xmlns="http://www.w3.org/2000/svg">
<circle cx="45.5" cy="45.5" r="45" fill="#EDE7E7" stroke="black"/>
<path d="M27 60.7273V40.2727C27 38.0134 28.7001 36.1818 30.7972 36.1818H31.7465C32.9417 36.1818 34.0671 35.5756 34.7842 34.5455L38.9991 28.4909C39.2142 28.1819 39.5519 28 39.9104 28H52.0614C52.42 28 52.7576 28.1819 52.9727 28.4909L57.1876 34.5455C57.9047 35.5756 59.0302 36.1818 60.2253 36.1818H61.1746C63.2718 36.1818 64.9718 38.0134 64.9718 40.2727V60.7273C64.9718 62.9867 63.2718 64.8182 61.1746 64.8182H30.7972C28.7001 64.8182 27 62.9867 27 60.7273Z" stroke="black" stroke-width="2" stroke-linecap="round" stroke-linejoin="round"/>
<path d="M45.986 56.6363C50.1801 56.6363 53.5803 52.9731 53.5803 48.4545C53.5803 43.9359 50.1801 40.2727 45.986 40.2727C41.7917 40.2727 38.3916 43.9359 38.3916 48.4545C38.3916 52.9731 41.7917 56.6363 45.986 56.6363Z" stroke="black" stroke-width="2" stroke-linecap="round" stroke-linejoin="round"/>
<circle cx="71" cy="81" r="9.5" fill="#56AEFF" stroke="black"/>
<line x1="64" y1="81" x2="78" y2="81" stroke="white" stroke-width="2"/>
<path d="M71 74V88" stroke="white" stroke-width="2"/>
</svg>
