<svg width="28" height="30" viewBox="0 0 28 30" fill="none" xmlns="http://www.w3.org/2000/svg">
<g clip-path="url(#clip0_28_479)">
<path d="M18.6666 20L13.9999 15L9.33325 20" stroke="white" stroke-width="5" stroke-linecap="round" stroke-linejoin="round"/>
<path d="M14 15V26.25" stroke="white" stroke-width="5" stroke-linecap="round" stroke-linejoin="round"/>
<path d="M23.7883 22.9875C24.9262 22.3228 25.8251 21.2711 26.3431 19.9983C26.8612 18.7254 26.9689 17.304 26.6492 15.9583C26.3295 14.6127 25.6007 13.4194 24.5777 12.5668C23.5548 11.7142 22.296 11.2509 21 11.25H19.53C19.1768 9.78653 18.5186 8.4279 17.6049 7.27622C16.6911 6.12454 15.5456 5.20979 14.2544 4.60074C12.9632 3.99169 11.5599 3.70418 10.1501 3.75983C8.74025 3.81549 7.36053 4.21285 6.11466 4.92206C4.86879 5.63127 3.78918 6.63386 2.95701 7.85446C2.12484 9.07505 1.56176 10.4819 1.3101 11.9692C1.05843 13.4565 1.12474 14.9856 1.50404 16.4416C1.88333 17.8975 2.56574 19.2423 3.49995 20.375" stroke="white" stroke-width="5" stroke-linecap="round" stroke-linejoin="round"/>
<path d="M18.6666 20L13.9999 15L9.33325 20" stroke="white" stroke-width="5" stroke-linecap="round" stroke-linejoin="round"/>
</g>
<defs>
<clipPath id="clip0_28_479">
<rect width="28" height="30" fill="white"/>
</clipPath>
</defs>
</svg>
